<svg width="710" height="103" viewBox="0 0 710 103" fill="none" xmlns="http://www.w3.org/2000/svg">
<path d="M707.771 46.0996L695.67 28.5H671.87L671.471 27.5V18.0996H705.771V6.7998H659.37V31.0996L665.271 39.7998H689.771L695.67 48.2002V65.0996L693.17 67.5996H659.37V78.7998H698.271L707.771 68.8994V46.0996ZM707.771 20.0996H673.471V26.5H696.723L709.771 45.4785V69.7041L699.123 80.7998H657.37V65.5996H692.342L693.67 64.2715V48.832L688.731 41.7998H664.21L657.37 31.7139V4.7998H707.771V20.0996Z" fill="#4C1CBE"/>
<path d="M647.81 51.3994L637.409 35.7998H630.609L647.81 18V6.7998H599.409V18.0996H632.209L614.609 36.2002V45.0996H629.909L635.81 53.5996V65.0996L633.31 67.5H599.409V78.7998H638.31L647.81 68.7998V51.3994ZM649.81 18.8086L635.323 33.7998H638.479L649.81 50.7939V69.5986L639.168 80.7998H597.409V65.5H632.504L633.81 64.2461V54.2266L628.863 47.0996H612.609V35.3877L627.475 20.0996H597.409V4.7998H649.81V18.8086Z" fill="#4C1CBE"/>
<path d="M491.688 23.7002H479.588V65.3994L488.688 78.7998H510.287L515.888 75.5V78.7998H527.787V23.7002H515.688V65.5996L513.888 67.5H494.588L491.688 63.2002V23.7002ZM529.787 80.7998H513.888V78.999L510.833 80.7998H487.628L477.933 66.5234L477.588 66.0146V21.7002H493.688V62.5869L495.651 65.5H513.026L513.688 64.8027V21.7002H529.787V80.7998Z" fill="#4C1CBE"/>
<path d="M468.427 2H456.326V26.8994L450.927 23.5996H429.326L420.127 33.2998V65.2998L429.326 78.7998H450.927L456.326 75.5V78.7998H468.427V2ZM453.427 34.8994L456.326 39.2998V65.7002L454.526 67.5H435.127L432.227 63.2002V37L434.227 34.8994H453.427ZM434.227 37.7988V62.5869L436.19 65.5H453.698L454.326 64.8711V39.8994L452.35 36.8994H435.084L434.227 37.7988ZM470.427 80.7998H454.326V79.0654L451.97 80.5068L451.489 80.7998H428.27L418.127 65.916V32.502L428.467 21.5996H451.489L454.326 23.333V0H470.427V80.7998Z" fill="#4C1CBE"/>
<path d="M305.604 21.5H342.063L350.005 33.1846V80.7998H333.904V79.0322L330.959 80.7998H307.539L297.604 66.0088V59.2959L314.852 41.2998H333.904V36.5996H305.604V21.5ZM335.505 54.7002V67.5H314.005L312.104 63.2002V63L320.205 54.7002H335.505ZM314.419 63.4902L315.308 65.5H333.505V56.7002H321.047L314.419 63.4902ZM307.604 34.5996H335.904V43.2998H315.705L299.604 60.0996V65.3994L308.604 78.7998H330.404L335.904 75.5V78.7998H348.005V33.7998L341.005 23.5H307.604V34.5996Z" fill="#4C1CBE"/>
<path d="M288.544 2H276.443V26.8994L271.044 23.5996H249.443L240.244 33.2998V65.2998L249.443 78.7998H271.044L276.443 75.5V78.7998H288.544V2ZM273.544 34.8994L276.443 39.2998V65.7002L274.644 67.5H255.244L252.344 63.2002V37L254.344 34.8994H273.544ZM254.344 37.7988V62.5869L256.308 65.5H273.815L274.443 64.8711V39.8994L272.467 36.8994H255.201L254.344 37.7988ZM290.544 80.7998H274.443V79.0654L272.087 80.5068L271.606 80.7998H248.387L238.244 65.916V32.502L248.584 21.5996H271.606L274.443 23.333V0H290.544V80.7998Z" fill="#4C1CBE"/>
<path d="M177.783 21.7002H193.883V23.4668L196.354 21.9844L196.829 21.7002H220.145L230.083 36.3867V80.7998H213.982V39.8105L212.019 36.8994H194.603L193.883 37.7393V80.7998H177.783V21.7002ZM179.783 78.7998H191.883V37L193.683 34.8994H213.083L215.982 39.2002V78.7998H228.083V37L219.083 23.7002H197.383L191.883 27V23.7002H179.783V78.7998Z" fill="#4C1CBE"/>
<path d="M159.79 21.5L170.385 37.333L150.967 57.2998H133.822V61.8838L136.08 65.2002H153.372L159.867 58.4697L169.378 70.4268L159.371 80.7998H127.954L118.322 66.4072V31.8906L128.374 21.5H159.79ZM151.521 35.0996L153.122 37.3994L145.722 45.2002H131.822V37.5L134.122 35.0996H151.521ZM133.822 38.3027V43.2002H144.861L150.55 37.2041L150.477 37.0996H134.975L133.822 38.3027ZM120.322 65.7998L129.021 78.7998H158.521L166.722 70.2998L159.722 61.5L154.222 67.2002H135.021L131.822 62.5V55.2998H150.122L167.822 37.0996L158.722 23.5H129.222L120.322 32.7002V65.7998Z" fill="#4C1CBE"/>
<path d="M108.261 75.7998L101.261 64.8994H75.5605L74.0605 62.2002L76.4609 59.7002H90.3613L107.861 48.8994V23.7998H95.7607V27L90.3613 23.7998H72.0605L61.5605 34.7998V53.7998L64.6611 55.7998L59.5605 60.7002L67.0605 72.0996L61.9609 77.2002V88.3994L71.2607 100.3H93.6611L108.261 87V75.7998ZM95.1611 76.2998L95.6611 77V82.2998L88.8613 88.8994H77.0605L74.5605 85.2002V79.8994L78.5605 76.2998H95.1611ZM76.5605 80.79V84.5869L78.123 86.8994H88.0498L93.6611 81.4521V78.2998H79.3281L76.5605 80.79ZM92.8613 35.2002L95.7607 39.2998V44.2998L89.2607 48.2998H73.5605V38.5996L76.7607 35.2002H92.8613ZM75.5605 39.3936V46.2998H88.6953L93.7607 43.1826V39.9355L91.8262 37.2002H77.625L75.5605 39.3936ZM109.861 50.0156L91.4111 61.4014L90.9287 61.7002H77.3125L76.5264 62.5186L76.7373 62.8994H102.354L110.261 75.2129V87.8838L94.4355 102.3H70.2861L59.9609 89.0889V76.3711L64.4932 71.8379L56.9766 60.4102L61.4512 56.1094L59.5605 54.8896V33.998L71.2051 21.7998H90.9092L93.7607 23.4893V21.7998H109.861V50.0156Z" fill="#4C1CBE"/>
<path d="M46 8.7998H19.2998L2 26.7002V78.7998H13.9004V48.8994H33.9004V78.7998H46V8.7998ZM33.9004 20.0996V37.5996H13.9004V30.2002L23.7002 20.0996H33.9004ZM15.9004 31.0098V35.5996H31.9004V22.0996H24.5459L15.9004 31.0098ZM48 80.7998H31.9004V50.8994H15.9004V80.7998H0V25.8916L18.4512 6.7998H48V80.7998Z" fill="#4C1CBE"/>
</svg>
